<svg xmlns="http://www.w3.org/2000/svg" width="20.349" height="20.351" viewBox="0 0 20.349 20.351">
  <g id="Crop" transform="translate(0 0)">
    <path id="Path_5" data-name="Path 5" d="M5.033,1.984a1.021,1.021,0,0,0-1,1.032V4.032H3.016a1.016,1.016,0,1,0,0,2.032H4.032V18.257A2.046,2.046,0,0,0,6.065,20.29H18.257v1.016a1.016,1.016,0,1,0,2.032,0V20.29h1.016a1.016,1.016,0,1,0,0-2.032H19.432a1.3,1.3,0,0,0-.175-.016c-.048,0-.1.008-.147.016H7.5L18.257,7.5v7.708a1.016,1.016,0,1,0,2.032,0V5.469l1.734-1.734a1.013,1.013,0,0,0,.226-1.123,1,1,0,0,0-.964-.619.987.987,0,0,0-.7.306L18.853,4.032H9.113a1.016,1.016,0,1,0,0,2.032h7.708L6.065,16.821V5.219a.919.919,0,0,0,0-.329V3.016A1.017,1.017,0,0,0,5.033,1.984Z" transform="translate(-1.986 -1.984)" fill="#373e4a"/>
  </g>
</svg>
