<svg xmlns="http://www.w3.org/2000/svg" width="18.774" height="18.748" viewBox="0 0 18.774 18.748"><defs><style>.a{fill:#fcfcfc;}</style></defs><g transform="translate(-1.986 -2)"><path class="a" d="M10.436,2a.939.939,0,0,0-.937.937v7.5H6.217a.469.469,0,0,0-.33.8.209.209,0,0,0,.029.026L10.7,15.779l.033.029a.939.939,0,0,0,1.282,0l.015-.011s0-.007.007-.015l4.786-4.511a.169.169,0,0,0,.026-.026l.007,0s0,0,.007,0A.478.478,0,0,0,17,10.905a.467.467,0,0,0-.469-.469H13.248v-7.5A.939.939,0,0,0,12.311,2Zm-7.5,16.873a.938.938,0,1,0,0,1.875H19.81a.938.938,0,1,0,0-1.875Z" transform="translate(0)"/></g></svg>