<svg xmlns="http://www.w3.org/2000/svg" width="24.386" height="24.386" viewBox="0 0 24.386 24.386">
  <g id="light" transform="translate(0)">
    <path id="Path_22" data-name="Path 22" d="M12.193,0a.958.958,0,0,0-1.016,1.016V2.032a1.016,1.016,0,1,0,2.032,0V1.016A.958.958,0,0,0,12.193,0ZM4.267,3.251a1,1,0,0,0-.71.306.983.983,0,0,0,0,1.421l.71.714A1.008,1.008,0,1,0,5.692,4.267l-.714-.71A1,1,0,0,0,4.267,3.251Zm15.852,0a1.02,1.02,0,0,0-.714.306l-.707.71a1.006,1.006,0,0,0,1.421,1.425l.71-.714a.983.983,0,0,0,0-1.421A1,1,0,0,0,20.119,3.251ZM12.193,5.08a7.113,7.113,0,1,0,7.112,7.113A7.111,7.111,0,0,0,12.193,5.08Zm-11.177,6.1a1.016,1.016,0,0,0,0,2.032H2.032a1.016,1.016,0,0,0,0-2.032Zm21.337,0a1.016,1.016,0,0,0,0,2.032H23.37a1.016,1.016,0,1,0,0-2.032ZM4.977,18.389a.992.992,0,0,0-.71.309l-.71.707a1.006,1.006,0,0,0,1.421,1.425l.714-.71a.983.983,0,0,0,0-1.421A1.008,1.008,0,0,0,4.977,18.389Zm14.427,0a1.02,1.02,0,0,0-.707,1.73l.707.71A1.008,1.008,0,1,0,20.829,19.4l-.71-.707A1,1,0,0,0,19.4,18.389Zm-7.212,2.949a.958.958,0,0,0-1.016,1.016V23.37a1.016,1.016,0,1,0,2.032,0V22.354A.958.958,0,0,0,12.193,21.338Z" transform="translate(0 0)" fill="#373e4a"/>
  </g>
</svg>
