<svg xmlns="http://www.w3.org/2000/svg" width="29.909" height="29.909" viewBox="0 0 29.909 29.909">
  <g id="Profile" transform="translate(-2 -2)">
    <path id="Path_10" data-name="Path 10" d="M16.954,2A14.954,14.954,0,1,0,31.909,16.954,14.953,14.953,0,0,0,16.954,2Zm0,4.112a4.86,4.86,0,1,1-4.86,4.86A4.856,4.856,0,0,1,16.954,6.112Zm0,22.805a11.934,11.934,0,0,1-9.107-4.206,1.518,1.518,0,0,1,.263-2.2c2.267-1.712,6.4-2.57,8.844-2.57s6.578.859,8.844,2.57a1.513,1.513,0,0,1,.263,2.2A11.934,11.934,0,0,1,16.954,28.918Z" transform="translate(0 0)" fill="#152c5b"/>
  </g>
</svg>
