<svg xmlns="http://www.w3.org/2000/svg" width="18.306" height="20.324" viewBox="0 0 18.306 20.324">
  <g id="reflect_h_" data-name="reflect h " transform="translate(0 0)">
    <path id="Path_7" data-name="Path 7" d="M3.857,2A.859.859,0,0,0,3,2.857v7.271a1.018,1.018,0,0,0,1.016,1.016H20.523a.783.783,0,0,0,.306-1.5L4.2,2.071A.824.824,0,0,0,3.857,2ZM5.032,4.683l9.732,4.429H5.032ZM4.016,13.177A1.018,1.018,0,0,0,3,14.193v7.271a.861.861,0,0,0,1.2.79l16.63-7.573a.784.784,0,0,0-.31-1.5Z" transform="translate(-3 -2)" fill="#373e4a"/>
  </g>
</svg>
