<svg xmlns="http://www.w3.org/2000/svg" width="20.329" height="18.306" viewBox="0 0 20.329 18.306">
  <g id="reflect_up_down" data-name="reflect up down" transform="translate(0 0)">
    <path id="Path_8" data-name="Path 8" d="M10.351,2.984a.75.75,0,0,0-.707.476L2.071,20.095a.857.857,0,0,0,.786,1.195h7.271a1.018,1.018,0,0,0,1.016-1.016V3.77A.776.776,0,0,0,10.351,2.984Zm3.715,0a.78.78,0,0,0-.881.782v16.5A1.018,1.018,0,0,0,14.2,21.29h7.267a.856.856,0,0,0,.79-1.195L14.689,3.461A.758.758,0,0,0,14.066,2.988ZM9.112,9.525v9.732H4.683Z" transform="translate(-2.001 -2.983)" fill="#373e4a"/>
  </g>
</svg>
