<svg xmlns="http://www.w3.org/2000/svg" width="20.352" height="20.352" viewBox="0 0 20.352 20.352">
  <g id="zoom" transform="translate(0)">
    <path id="Path_9" data-name="Path 9" d="M9.123,2a7.123,7.123,0,1,0,4.655,12.5l.433.433v1.316L19.9,21.931A1.439,1.439,0,1,0,21.931,19.9l-5.684-5.684H14.931l-.433-.433A7.109,7.109,0,0,0,9.123,2Zm0,2.035A5.088,5.088,0,1,1,4.035,9.123,5.073,5.073,0,0,1,9.123,4.035ZM9.108,6.055a1.022,1.022,0,0,0-1,1.034V8.106H7.088a1.018,1.018,0,1,0,0,2.035H8.106v1.018a1.018,1.018,0,1,0,2.035,0V10.141h1.018a1.018,1.018,0,1,0,0-2.035H10.141V7.088A1.018,1.018,0,0,0,9.108,6.055Z" transform="translate(-2 -2)" fill="#373e4a"/>
  </g>
</svg>
